# MagicaVoxel @ Ephtracy

# group
o 

# material
mtllib Light sabers-0.mtl
usemtl palette

# normals
vn 1 0 0
vn -1 0 0
vn 0 0 1
vn 0 0 -1
vn 0 -1 0
vn 0 1 0

# texcoords
vt 0.880859 0.5
vt 0.884766 0.5
vt 0.888672 0.5

# verts
v 1.1 0.2 -0.4
v 1.1 0.2 -0.6
v 1.1 0.4 -0.4
v 1.1 0.4 -0.6
v 1 0.4 -0.4
v 1 0.4 -0.6
v 1 0.5 -0.4
v 1 0.5 -0.6
v 0.9 0.5 -0.4
v 0.9 0.5 -0.6
v 0.9 0.6 -0.4
v 0.9 0.6 -0.6
v 0.8 0.6 -0.4
v 0.8 0.6 -0.6
v 0.8 0.7 -0.4
v 0.8 0.7 -0.6
v 0.7 0.7 -0.4
v 0.7 0.7 -0.6
v 0.7 0.8 -0.4
v 0.7 0.8 -0.6
v 0.6 0.8 -0.4
v 0.6 0.8 -0.6
v 0.6 0.9 -0.4
v 0.6 0.9 -0.6
v 0.5 0.9 -0.4
v 0.5 0.9 -0.6
v 0.5 1 -0.4
v 0.5 1 -0.6
v 0.4 1 -0.4
v 0.4 1 -0.6
v 0.4 1.1 -0.4
v 0.4 1.1 -0.6
v 0.3 1.1 -0.4
v 0.3 1.1 -0.6
v 0.3 1.2 -0.4
v 0.3 1.2 -0.6
v 0.9 0.2 -0.4
v 0.9 0.2 -0.6
v 0.9 0.3 -0.4
v 0.9 0.3 -0.6
v 0.8 0.3 -0.4
v 0.8 0.3 -0.6
v 0.8 0.4 -0.4
v 0.8 0.4 -0.6
v 0.7 0.4 -0.4
v 0.7 0.4 -0.6
v 0.7 0.5 -0.4
v 0.7 0.5 -0.6
v 0.6 0.5 -0.4
v 0.6 0.5 -0.6
v 0.6 0.6 -0.4
v 0.6 0.6 -0.6
v 0.5 0.6 -0.4
v 0.5 0.6 -0.6
v 0.5 0.7 -0.4
v 0.5 0.7 -0.6
v 0.4 0.7 -0.4
v 0.4 0.7 -0.6
v 0.4 0.8 -0.4
v 0.4 0.8 -0.6
v 0.3 0.8 -0.4
v 0.3 0.8 -0.6
v 0.3 0.9 -0.4
v 0.3 0.9 -0.6
v 0.2 0.9 -0.4
v 0.2 0.9 -0.6
v 0.2 1 -0.4
v 0.2 1 -0.6
v 0.1 1 -0.4
v 0.1 1 -0.6
v 0.1 1.2 -0.4
v 0.1 1.2 -0.6
v 1.1 0.2 -0.4
v 1.1 0.4 -0.4
v 1 0.4 -0.4
v 1 0.5 -0.4
v 0.9 0.2 -0.4
v 0.9 0.3 -0.4
v 0.9 0.4 -0.4
v 0.9 0.5 -0.4
v 0.9 0.6 -0.4
v 0.8 0.3 -0.4
v 0.8 0.4 -0.4
v 0.8 0.5 -0.4
v 0.8 0.6 -0.4
v 0.8 0.7 -0.4
v 0.7 0.4 -0.4
v 0.7 0.5 -0.4
v 0.7 0.7 -0.4
v 0.7 0.8 -0.4
v 0.6 0.5 -0.4
v 0.6 0.6 -0.4
v 0.6 0.8 -0.4
v 0.6 0.9 -0.4
v 0.5 0.6 -0.4
v 0.5 0.7 -0.4
v 0.5 0.9 -0.4
v 0.5 1 -0.4
v 0.4 0.7 -0.4
v 0.4 0.8 -0.4
v 0.4 1 -0.4
v 0.4 1.1 -0.4
v 0.3 0.8 -0.4
v 0.3 0.9 -0.4
v 0.3 1.1 -0.4
v 0.3 1.2 -0.4
v 0.2 0.9 -0.4
v 0.2 1 -0.4
v 0.1 1 -0.4
v 0.1 1.2 -0.4
v 1.1 0.2 -0.6
v 1.1 0.4 -0.6
v 1 0.4 -0.6
v 1 0.5 -0.6
v 0.9 0.2 -0.6
v 0.9 0.3 -0.6
v 0.9 0.4 -0.6
v 0.9 0.5 -0.6
v 0.9 0.6 -0.6
v 0.8 0.3 -0.6
v 0.8 0.4 -0.6
v 0.8 0.5 -0.6
v 0.8 0.6 -0.6
v 0.8 0.7 -0.6
v 0.7 0.4 -0.6
v 0.7 0.5 -0.6
v 0.7 0.7 -0.6
v 0.7 0.8 -0.6
v 0.6 0.5 -0.6
v 0.6 0.6 -0.6
v 0.6 0.8 -0.6
v 0.6 0.9 -0.6
v 0.5 0.6 -0.6
v 0.5 0.7 -0.6
v 0.5 0.9 -0.6
v 0.5 1 -0.6
v 0.4 0.7 -0.6
v 0.4 0.8 -0.6
v 0.4 1 -0.6
v 0.4 1.1 -0.6
v 0.3 0.8 -0.6
v 0.3 0.9 -0.6
v 0.3 1.1 -0.6
v 0.3 1.2 -0.6
v 0.2 0.9 -0.6
v 0.2 1 -0.6
v 0.1 1 -0.6
v 0.1 1.2 -0.6
v 1.1 0.2 -0.4
v 0.9 0.2 -0.4
v 1.1 0.2 -0.6
v 0.9 0.2 -0.6
v 0.9 0.3 -0.4
v 0.8 0.3 -0.4
v 0.9 0.3 -0.6
v 0.8 0.3 -0.6
v 0.8 0.4 -0.4
v 0.7 0.4 -0.4
v 0.8 0.4 -0.6
v 0.7 0.4 -0.6
v 0.7 0.5 -0.4
v 0.6 0.5 -0.4
v 0.7 0.5 -0.6
v 0.6 0.5 -0.6
v 0.6 0.6 -0.4
v 0.5 0.6 -0.4
v 0.6 0.6 -0.6
v 0.5 0.6 -0.6
v 0.5 0.7 -0.4
v 0.4 0.7 -0.4
v 0.5 0.7 -0.6
v 0.4 0.7 -0.6
v 0.4 0.8 -0.4
v 0.3 0.8 -0.4
v 0.4 0.8 -0.6
v 0.3 0.8 -0.6
v 0.3 0.9 -0.4
v 0.2 0.9 -0.4
v 0.3 0.9 -0.6
v 0.2 0.9 -0.6
v 0.2 1 -0.4
v 0.1 1 -0.4
v 0.2 1 -0.6
v 0.1 1 -0.6
v 1.1 0.4 -0.4
v 1 0.4 -0.4
v 1.1 0.4 -0.6
v 1 0.4 -0.6
v 1 0.5 -0.4
v 0.9 0.5 -0.4
v 1 0.5 -0.6
v 0.9 0.5 -0.6
v 0.9 0.6 -0.4
v 0.8 0.6 -0.4
v 0.9 0.6 -0.6
v 0.8 0.6 -0.6
v 0.8 0.7 -0.4
v 0.7 0.7 -0.4
v 0.8 0.7 -0.6
v 0.7 0.7 -0.6
v 0.7 0.8 -0.4
v 0.6 0.8 -0.4
v 0.7 0.8 -0.6
v 0.6 0.8 -0.6
v 0.6 0.9 -0.4
v 0.5 0.9 -0.4
v 0.6 0.9 -0.6
v 0.5 0.9 -0.6
v 0.5 1 -0.4
v 0.4 1 -0.4
v 0.5 1 -0.6
v 0.4 1 -0.6
v 0.4 1.1 -0.4
v 0.3 1.1 -0.4
v 0.4 1.1 -0.6
v 0.3 1.1 -0.6
v 0.3 1.2 -0.4
v 0.1 1.2 -0.4
v 0.3 1.2 -0.6
v 0.1 1.2 -0.6

# faces
f 1/1/1 2/1/1 3/1/1
f 3/1/1 2/1/1 4/1/1
f 5/1/1 6/1/1 7/1/1
f 7/1/1 6/1/1 8/1/1
f 9/2/1 10/2/1 11/2/1
f 11/2/1 10/2/1 12/2/1
f 13/2/1 14/2/1 15/2/1
f 15/2/1 14/2/1 16/2/1
f 17/2/1 18/2/1 19/2/1
f 19/2/1 18/2/1 20/2/1
f 21/2/1 22/2/1 23/2/1
f 23/2/1 22/2/1 24/2/1
f 25/2/1 26/2/1 27/2/1
f 27/2/1 26/2/1 28/2/1
f 29/2/1 30/2/1 31/2/1
f 31/2/1 30/2/1 32/2/1
f 33/2/1 34/2/1 35/2/1
f 35/2/1 34/2/1 36/2/1
f 39/1/2 38/1/2 37/1/2
f 40/1/2 38/1/2 39/1/2
f 43/1/2 42/1/2 41/1/2
f 44/1/2 42/1/2 43/1/2
f 47/2/2 46/2/2 45/2/2
f 48/2/2 46/2/2 47/2/2
f 51/2/2 50/2/2 49/2/2
f 52/2/2 50/2/2 51/2/2
f 55/2/2 54/2/2 53/2/2
f 56/2/2 54/2/2 55/2/2
f 59/2/2 58/2/2 57/2/2
f 60/2/2 58/2/2 59/2/2
f 63/2/2 62/2/2 61/2/2
f 64/2/2 62/2/2 63/2/2
f 67/2/2 66/2/2 65/2/2
f 68/2/2 66/2/2 67/2/2
f 71/2/2 70/2/2 69/2/2
f 72/2/2 70/2/2 71/2/2
f 73/1/3 74/1/3 75/1/3
f 73/1/3 75/1/3 77/1/3
f 75/1/3 76/1/3 77/1/3
f 77/1/3 76/1/3 78/1/3
f 78/1/3 76/1/3 79/1/3
f 79/1/3 76/1/3 80/1/3
f 78/1/3 79/1/3 82/1/3
f 79/3/3 80/3/3 83/3/3
f 82/1/3 79/1/3 83/1/3
f 80/2/3 81/2/3 84/2/3
f 83/3/3 80/3/3 84/3/3
f 84/2/3 81/2/3 85/2/3
f 85/2/3 86/2/3 87/2/3
f 84/2/3 85/2/3 87/2/3
f 83/2/3 84/2/3 87/2/3
f 87/2/3 86/2/3 88/2/3
f 88/2/3 86/2/3 89/2/3
f 89/2/3 90/2/3 91/2/3
f 88/2/3 89/2/3 91/2/3
f 91/2/3 90/2/3 92/2/3
f 92/2/3 90/2/3 93/2/3
f 93/2/3 94/2/3 95/2/3
f 92/2/3 93/2/3 95/2/3
f 95/2/3 94/2/3 96/2/3
f 96/2/3 94/2/3 97/2/3
f 97/2/3 98/2/3 99/2/3
f 96/2/3 97/2/3 99/2/3
f 99/2/3 98/2/3 100/2/3
f 100/2/3 98/2/3 101/2/3
f 101/2/3 102/2/3 103/2/3
f 100/2/3 101/2/3 103/2/3
f 103/2/3 102/2/3 104/2/3
f 104/2/3 102/2/3 105/2/3
f 105/2/3 106/2/3 107/2/3
f 104/2/3 105/2/3 107/2/3
f 107/2/3 106/2/3 108/2/3
f 108/2/3 106/2/3 109/2/3
f 109/2/3 106/2/3 110/2/3
f 113/1/4 112/1/4 111/1/4
f 115/1/4 113/1/4 111/1/4
f 115/1/4 114/1/4 113/1/4
f 116/1/4 114/1/4 115/1/4
f 117/1/4 114/1/4 116/1/4
f 118/1/4 114/1/4 117/1/4
f 120/1/4 117/1/4 116/1/4
f 121/3/4 118/3/4 117/3/4
f 121/1/4 117/1/4 120/1/4
f 122/2/4 119/2/4 118/2/4
f 122/3/4 118/3/4 121/3/4
f 123/2/4 119/2/4 122/2/4
f 125/2/4 124/2/4 123/2/4
f 125/2/4 123/2/4 122/2/4
f 125/2/4 122/2/4 121/2/4
f 126/2/4 124/2/4 125/2/4
f 127/2/4 124/2/4 126/2/4
f 129/2/4 128/2/4 127/2/4
f 129/2/4 127/2/4 126/2/4
f 130/2/4 128/2/4 129/2/4
f 131/2/4 128/2/4 130/2/4
f 133/2/4 132/2/4 131/2/4
f 133/2/4 131/2/4 130/2/4
f 134/2/4 132/2/4 133/2/4
f 135/2/4 132/2/4 134/2/4
f 137/2/4 136/2/4 135/2/4
f 137/2/4 135/2/4 134/2/4
f 138/2/4 136/2/4 137/2/4
f 139/2/4 136/2/4 138/2/4
f 141/2/4 140/2/4 139/2/4
f 141/2/4 139/2/4 138/2/4
f 142/2/4 140/2/4 141/2/4
f 143/2/4 140/2/4 142/2/4
f 145/2/4 144/2/4 143/2/4
f 145/2/4 143/2/4 142/2/4
f 146/2/4 144/2/4 145/2/4
f 147/2/4 144/2/4 146/2/4
f 148/2/4 144/2/4 147/2/4
f 149/1/5 150/1/5 151/1/5
f 151/1/5 150/1/5 152/1/5
f 153/1/5 154/1/5 155/1/5
f 155/1/5 154/1/5 156/1/5
f 157/2/5 158/2/5 159/2/5
f 159/2/5 158/2/5 160/2/5
f 161/2/5 162/2/5 163/2/5
f 163/2/5 162/2/5 164/2/5
f 165/2/5 166/2/5 167/2/5
f 167/2/5 166/2/5 168/2/5
f 169/2/5 170/2/5 171/2/5
f 171/2/5 170/2/5 172/2/5
f 173/2/5 174/2/5 175/2/5
f 175/2/5 174/2/5 176/2/5
f 177/2/5 178/2/5 179/2/5
f 179/2/5 178/2/5 180/2/5
f 181/2/5 182/2/5 183/2/5
f 183/2/5 182/2/5 184/2/5
f 187/1/6 186/1/6 185/1/6
f 188/1/6 186/1/6 187/1/6
f 191/1/6 190/1/6 189/1/6
f 192/1/6 190/1/6 191/1/6
f 195/2/6 194/2/6 193/2/6
f 196/2/6 194/2/6 195/2/6
f 199/2/6 198/2/6 197/2/6
f 200/2/6 198/2/6 199/2/6
f 203/2/6 202/2/6 201/2/6
f 204/2/6 202/2/6 203/2/6
f 207/2/6 206/2/6 205/2/6
f 208/2/6 206/2/6 207/2/6
f 211/2/6 210/2/6 209/2/6
f 212/2/6 210/2/6 211/2/6
f 215/2/6 214/2/6 213/2/6
f 216/2/6 214/2/6 215/2/6
f 219/2/6 218/2/6 217/2/6
f 220/2/6 218/2/6 219/2/6
