#created with MagicaVoxel and VoxelOptimizer  - v:56 - f:56
o 3x3x3
mtllib 3x3x3.mtl
vn 0 1 0
vn 0 -1 0
vn -1 0 0
vn 1 0 0
vn 0 0 1
vn 0 0 -1
v -1.5 -1.5 -1.5
v -1.5 -1.5 1.5
v -0.5 -1.5 1.5
v -0.5 -1.5 -1.5
v -1.5 -0.5 -1.5
v -1.5 -0.5 1.5
v -0.5 -0.5 1.5
v -0.5 -0.5 -1.5
v -0.5 -1.5 -0.5
v 1.5 -1.5 -0.5
v 1.5 -1.5 -1.5
v -0.5 -0.5 -0.5
v 1.5 -0.5 -0.5
v 1.5 -0.5 -1.5
v -0.5 -1.5 0.5
v 1.5 -1.5 1.5
v 1.5 -1.5 0.5
v -0.5 -0.5 0.5
v 1.5 -0.5 1.5
v 1.5 -0.5 0.5
v 0.5 -1.5 -0.5
v 0.5 -1.5 0.5
v 0.5 -0.5 -0.5
v 0.5 -0.5 0.5
v -1.5 -0.5 -0.5
v -1.5 1.5 -1.5
v -1.5 1.5 -0.5
v -0.5 1.5 -0.5
v -0.5 1.5 -1.5
v -1.5 -0.5 0.5
v -1.5 1.5 0.5
v -1.5 1.5 1.5
v -0.5 1.5 1.5
v -0.5 1.5 0.5
v 0.5 -0.5 -1.5
v 0.5 1.5 -1.5
v 0.5 1.5 -0.5
v 1.5 1.5 -0.5
v 1.5 1.5 -1.5
v 0.5 -0.5 1.5
v 0.5 1.5 0.5
v 0.5 1.5 1.5
v 1.5 1.5 1.5
v 1.5 1.5 0.5
v -1.5 0.5 -0.5
v -1.5 0.5 0.5
v -0.5 0.5 0.5
v -0.5 0.5 -0.5
v -0.5 0.5 -1.5
v 0.5 0.5 -0.5
v 0.5 0.5 -1.5
v -0.5 0.5 1.5
v 0.5 0.5 1.5
v 0.5 0.5 0.5
v 1.5 0.5 0.5
v 1.5 0.5 -0.5
vt 0 1
vt 0 0
vt 1 0
vt 1 1
usemtl x
f 5/2/1 6/3/1 7/4/1 8/1/1
f 4/2/2 3/3/2 2/4/2 1/1/2
f 4/2/6 1/3/6 5/4/6 8/1/6
f 2/2/5 3/3/5 7/4/5 6/1/5
f 1/2/3 2/3/3 6/4/3 5/1/3
f 3/2/4 4/3/4 8/4/4 7/1/4
f 8/2/1 12/3/1 13/4/1 14/1/1
f 11/2/2 10/3/2 9/4/2 4/1/2
f 11/2/6 4/3/6 8/4/6 14/1/6
f 9/2/5 10/3/5 13/4/5 12/1/5
f 10/2/4 11/3/4 14/4/4 13/1/4
f 18/2/1 7/3/1 19/4/1 20/1/1
f 17/2/2 16/3/2 3/4/2 15/1/2
f 17/2/6 15/3/6 18/4/6 20/1/6
f 3/2/5 16/3/5 19/4/5 7/1/5
f 16/2/4 17/3/4 20/4/4 19/1/4
f 23/2/1 24/3/1 20/4/1 13/1/1
f 10/2/2 17/3/2 22/4/2 21/1/2
f 21/2/3 22/3/3 24/4/3 23/1/3
f 17/2/4 10/3/4 13/4/4 20/1/4
f 26/2/1 27/3/1 28/4/1 29/1/1
f 8/2/6 5/3/6 26/4/6 29/1/6
f 25/2/5 12/3/5 28/4/5 27/1/5
f 5/2/3 25/3/3 27/4/3 26/1/3
f 12/2/4 8/3/4 29/4/4 28/1/4
f 31/2/1 32/3/1 33/4/1 34/1/1
f 18/2/6 30/3/6 31/4/6 34/1/6
f 6/2/5 7/3/5 33/4/5 32/1/5
f 30/2/3 6/3/3 32/4/3 31/1/3
f 7/2/4 18/3/4 34/4/4 33/1/4
f 36/2/1 37/3/1 38/4/1 39/1/1
f 14/2/6 35/3/6 36/4/6 39/1/6
f 23/2/5 13/3/5 38/4/5 37/1/5
f 35/2/3 23/3/3 37/4/3 36/1/3
f 13/2/4 14/3/4 39/4/4 38/1/4
f 41/2/1 42/3/1 43/4/1 44/1/1
f 20/2/6 24/3/6 41/4/6 44/1/6
f 40/2/5 19/3/5 43/4/5 42/1/5
f 24/2/3 40/3/3 42/4/3 41/1/3
f 19/2/4 20/3/4 44/4/4 43/1/4
f 27/2/1 31/3/1 34/4/1 28/1/1
f 48/2/2 47/3/2 46/4/2 45/1/2
f 45/2/3 46/3/3 31/4/3 27/1/3
f 47/2/4 48/3/4 28/4/4 34/1/4
f 29/2/1 28/3/1 37/4/1 36/1/1
f 51/2/2 50/3/2 48/4/2 49/1/2
f 51/2/6 49/3/6 29/4/6 36/1/6
f 48/2/5 50/3/5 37/4/5 28/1/5
f 34/2/1 33/3/1 42/4/1 41/1/1
f 54/2/2 53/3/2 52/4/2 47/1/2
f 54/2/6 47/3/6 34/4/6 41/1/6
f 52/2/5 53/3/5 42/4/5 33/1/5
f 37/2/1 41/3/1 44/4/1 38/1/1
f 56/2/2 55/3/2 54/4/2 50/1/2
f 50/2/3 54/3/3 41/4/3 37/1/3
f 55/2/4 56/3/4 38/4/4 44/1/4
