#created with MagicaVoxel and VoxelOptimizer  - v:449 - f:377
o chr_knight
mtllib chr_knight.mtl
vn 0 1 0
vn 0 -1 0
vn -1 0 0
vn 1 0 0
vn 0 0 1
vn 0 0 -1
v -0.5 -10 -6
v -0.5 -10 -5
v 0.5 -10 -5
v 0.5 -10 -6
v -0.5 1 -6
v -0.5 1 -5
v 0.5 1 -5
v 0.5 1 -6
v -0.5 -10 -2
v -0.5 -10 -1
v 0.5 -10 -1
v 0.5 -10 -2
v -0.5 4 -2
v -0.5 4 -1
v 0.5 4 -1
v 0.5 4 -2
v -0.5 -10 1
v -0.5 -10 2
v 0.5 -10 2
v 0.5 -10 1
v -0.5 4 1
v -0.5 4 2
v 0.5 4 2
v 0.5 4 1
v -2.5 -7 -3
v -2.5 -7 3
v 2.5 -7 3
v 2.5 -7 -3
v -2.5 -6 -3
v -2.5 -6 3
v 2.5 -6 3
v 2.5 -6 -3
v -0.5 -7 -5
v -0.5 -7 -4
v 0.5 -7 -4
v 0.5 -7 -5
v -0.5 -6 -5
v -0.5 -6 -4
v 0.5 -6 -4
v 0.5 -6 -5
v -0.5 -7 3
v -0.5 -7 4
v 0.5 -7 4
v 0.5 -7 3
v -0.5 -6 3
v -0.5 -6 4
v 0.5 -6 4
v 0.5 -6 3
v 2.5 -7 4
v 3.5 -7 4
v 3.5 -7 3
v 2.5 -6 4
v 3.5 -6 4
v 3.5 -6 3
v 2.5 -7 5
v 2.5 -7 6
v 3.5 -7 6
v 3.5 -7 5
v 2.5 -6 5
v 2.5 -6 6
v 3.5 -6 6
v 3.5 -6 5
v -1.5 -6 -2
v -1.5 -6 2
v 1.5 -6 2
v 1.5 -6 -2
v -1.5 -5 -2
v -1.5 -5 2
v 1.5 -5 2
v 1.5 -5 -2
v -0.5 -6 -3
v 0.5 -6 -3
v -0.5 -5 -4
v -0.5 -5 -3
v 0.5 -5 -3
v 0.5 -5 -4
v -0.5 -6 5
v 0.5 -6 5
v -0.5 -5 4
v -0.5 -5 5
v 0.5 -5 5
v 0.5 -5 4
v 1.5 -6 6
v 1.5 -6 7
v 2.5 -6 7
v 1.5 -5 6
v 1.5 -5 7
v 2.5 -5 7
v 2.5 -5 6
v 2.5 -6 2
v 3.5 -6 2
v 2.5 -5 2
v 2.5 -5 3
v 3.5 -5 3
v 3.5 -5 2
v 2.5 -5 4
v 2.5 -5 5
v 3.5 -5 5
v 3.5 -5 4
v -1.5 -5 -3
v -1.5 -5 3
v -0.5 -5 3
v -1.5 -3 -3
v -1.5 -3 3
v -0.5 -3 3
v -0.5 -3 -3
v -0.5 -5 -8
v -0.5 -5 -7
v 0.5 -5 -7
v 0.5 -5 -8
v -0.5 -4 -8
v -0.5 -4 -7
v 0.5 -4 -7
v 0.5 -4 -8
v -0.5 -5 1
v 0.5 -5 1
v -0.5 -4 -3
v -0.5 -4 1
v 0.5 -4 1
v 0.5 -4 -3
v 0.5 -5 3
v -0.5 -4 3
v -0.5 -4 4
v 0.5 -4 4
v 0.5 -4 3
v 0.5 -5 -2
v 0.5 -5 2
v 1.5 4 2
v 1.5 4 -2
v 0.5 -5 7
v 0.5 -5 8
v 1.5 -5 8
v 0.5 -4 7
v 0.5 -4 8
v 1.5 -4 8
v 1.5 -4 7
v 1.5 -5 1
v 3.5 -5 1
v 1.5 -4 1
v 1.5 -4 2
v 3.5 -4 2
v 3.5 -4 1
v 2.5 -4 3
v 2.5 -4 4
v 3.5 -4 4
v 3.5 -4 3
v -2.5 -4 -2
v -2.5 -4 -1
v 2.5 -4 -1
v 2.5 -4 -2
v -2.5 -3 -2
v -2.5 -3 -1
v 2.5 -3 -1
v 2.5 -3 -2
v -2.5 -4 1
v -2.5 -4 2
v 2.5 -4 2
v 2.5 -4 1
v -2.5 -3 1
v -2.5 -3 2
v 2.5 -3 2
v 2.5 -3 1
v -0.5 -4 -9
v 0.5 -4 -9
v -0.5 2 -9
v -0.5 2 -8
v 0.5 2 -8
v 0.5 2 -9
v 0.5 -3 3
v 0.5 -3 -3
v -0.5 -4 6
v -0.5 -4 7
v 0.5 -4 6
v -0.5 -3 6
v -0.5 -3 7
v 0.5 -3 7
v 0.5 -3 6
v 1.5 -4 3
v 1.5 -4 -3
v 1.5 -3 3
v 1.5 -3 -3
v 1.5 -4 -1
v 1.5 3 -1
v 1.5 3 3
v 2.5 3 3
v 2.5 3 -1
v 1.5 -4 4
v 1.5 -4 5
v 2.5 -4 5
v 1.5 -3 4
v 1.5 -3 5
v 2.5 -3 5
v 2.5 -3 4
v 3.5 -4 -1
v 3.5 -3 1
v 3.5 -3 -1
v 2.5 -3 3
v 3.5 -3 3
v 3.5 -3 2
v -2.5 -3 -3
v -1.5 -3 -2
v -2.5 3 -3
v -2.5 3 -2
v -1.5 3 -2
v -1.5 3 -3
v -2.5 -3 3
v -1.5 -3 2
v -2.5 3 2
v -2.5 3 3
v -1.5 3 3
v -1.5 3 2
v -0.5 -3 2
v -0.5 -3 -2
v -1.5 4 -2
v -1.5 4 2
v -0.5 -3 -10
v -0.5 -3 -7
v 0.5 -3 -7
v 0.5 -3 -10
v -0.5 -2 -10
v -0.5 -2 -7
v 0.5 -2 -7
v 0.5 -2 -10
v -0.5 -2 -3
v -0.5 -2 3
v 0.5 -2 3
v 0.5 -2 -3
v 0.5 -3 4
v 0.5 -2 4
v 1.5 -2 4
v 1.5 -2 -3
v 1.5 -3 -1
v 2.5 -3 -3
v 1.5 3 -3
v 2.5 3 -3
v 3.5 -3 -2
v 2.5 2 -2
v 2.5 2 -1
v 3.5 2 -1
v 3.5 2 -2
v 2.5 2 1
v 2.5 2 2
v 3.5 2 2
v 3.5 2 1
v -1.5 -2 -4
v -1.5 -2 4
v -0.5 -2 4
v -0.5 -2 -4
v -1.5 -1 -4
v -1.5 -1 4
v -0.5 -1 4
v -0.5 -1 -4
v -0.5 -2 -6
v 0.5 -2 -6
v -0.5 -1 -10
v -0.5 -1 -6
v 0.5 -1 -6
v 0.5 -1 -10
v 0.5 -2 -4
v 0.5 -1 4
v 0.5 -1 -4
v 1.5 -2 -4
v 1.5 -1 4
v 1.5 -1 -4
v 3.5 -2 -2
v 3.5 -2 -1
v 4.5 -2 -1
v 4.5 -2 -2
v 3.5 1 -2
v 3.5 1 -1
v 4.5 1 -1
v 4.5 1 -2
v 3.5 -2 1
v 3.5 -2 2
v 4.5 -2 2
v 4.5 -2 1
v 3.5 1 1
v 3.5 1 2
v 4.5 1 2
v 4.5 1 1
v -2.5 -1 -4
v -2.5 -1 -3
v -1.5 -1 -3
v -2.5 2 -4
v -2.5 2 -3
v -1.5 2 -3
v -1.5 2 -4
v -2.5 -1 -1
v -2.5 -1 0
v 4.5 -1 0
v 4.5 -1 -1
v -2.5 0 -1
v -2.5 0 0
v 4.5 0 0
v 4.5 0 -1
v -2.5 -1 3
v -2.5 -1 4
v -1.5 -1 3
v -2.5 2 3
v -2.5 2 4
v -1.5 2 4
v -1.5 2 3
v -0.5 -1 3
v -0.5 -1 -3
v -1.5 0 -3
v -1.5 0 3
v -0.5 0 3
v -0.5 0 -3
v -0.5 0 -10
v -0.5 0 -6
v 0.5 0 -6
v 0.5 0 -10
v -0.5 0 -4
v -0.5 0 4
v 0.5 0 4
v 0.5 0 -4
v 0.5 -1 -3
v 0.5 -1 3
v 1.5 -1 3
v 1.5 -1 -3
v 0.5 0 -3
v 0.5 0 3
v 1.5 0 3
v 1.5 0 -3
v 2.5 -1 4
v 2.5 -1 -4
v 1.5 0 -4
v 1.5 0 4
v 2.5 0 4
v 2.5 0 -4
v 2.5 -1 -3
v 2.5 -1 3
v 3.5 -1 3
v 3.5 -1 -3
v 2.5 0 -3
v 2.5 0 3
v 3.5 0 3
v 3.5 0 -3
v 3.5 -1 0
v 3.5 -1 1
v 4.5 -1 1
v 3.5 1 0
v 4.5 1 0
v -3.5 0 -3
v -3.5 0 3
v -2.5 0 3
v -2.5 0 -3
v -3.5 2 -3
v -3.5 2 3
v -2.5 0 -2
v -2.5 0 2
v -1.5 0 2
v -1.5 0 -2
v -1.5 0 -4
v -1.5 0 4
v -1.5 1 -4
v -1.5 1 4
v -0.5 1 4
v -0.5 1 -4
v -0.5 0 -7
v 0.5 0 -7
v -0.5 1 -10
v -0.5 1 -7
v 0.5 1 -7
v 0.5 1 -10
v -0.5 1 -3
v -0.5 1 3
v 0.5 1 3
v 0.5 1 -3
v 0.5 1 -4
v 0.5 1 4
v 1.5 1 4
v 1.5 1 -4
v 2.5 1 4
v 2.5 1 -4
v 2.5 1 -3
v 2.5 1 3
v 3.5 1 3
v 3.5 1 -3
v 3.5 0 -1
v 3.5 0 0
v -1.5 1 -3
v -1.5 1 3
v -0.5 2 3
v -0.5 2 -3
v -0.5 2 -4
v -0.5 2 4
v 0.5 2 4
v 0.5 2 -4
v 1.5 1 3
v 1.5 1 -3
v 0.5 2 -3
v 0.5 2 3
v 1.5 2 3
v 1.5 2 -3
v 1.5 2 -4
v 1.5 2 4
v 2.5 2 4
v 2.5 2 -4
v 2.5 2 -3
v 2.5 2 3
v 3.5 2 3
v 3.5 2 -3
v -1.5 3 -4
v -1.5 3 4
v -0.5 3 4
v -0.5 3 -4
v -0.5 2 -7
v 0.5 2 -7
v -0.5 3 -8
v -0.5 3 -7
v 0.5 3 -7
v 0.5 3 -8
v 0.5 3 4
v 0.5 3 -4
v 1.5 3 4
v 1.5 3 -4
v -0.5 3 -5
v -0.5 3 -3
v 0.5 3 -3
v 0.5 3 -5
v -0.5 4 -5
v -0.5 4 -3
v 0.5 4 -3
v 0.5 4 -5
v -0.5 3 -1
v -0.5 3 1
v 0.5 3 1
v 0.5 3 -1
v -0.5 3 3
v -0.5 3 5
v 0.5 3 5
v 0.5 3 3
v -0.5 4 3
v -0.5 4 5
v 0.5 4 5
v 0.5 4 3
v -0.5 4 -4
v 0.5 4 -4
v -0.5 5 -5
v -0.5 5 -4
v 0.5 5 -4
v 0.5 5 -5
v -0.5 4 4
v 0.5 4 4
v -0.5 5 4
v -0.5 5 5
v 0.5 5 5
v 0.5 5 4
vt 0.0000 1.0000
vt 0.0000 0.7188
vt 0.1250 0.7188
vt 0.1250 1.0000
vt 0.0000 0.5625
vt 0.1875 0.5625
vt 0.1875 0.7188
vt 0.1250 0.7812
vt 0.2500 0.7812
vt 0.2500 1.0000
vt 0.0000 0.3438
vt 0.1250 0.3438
vt 0.1250 0.5625
vt 0.1250 0.1250
vt 0.1562 0.1250
vt 0.1562 0.5625
vt 0.1875 0.1250
vt 0.0000 0.0000
vt 0.0312 0.0000
vt 0.0312 0.3438
vt 0.3125 0.7188
vt 0.3125 0.7812
vt 0.0312 0.0625
vt 0.0625 0.0625
vt 0.0625 0.3438
vt 0.0938 0.0625
vt 0.0938 0.3438
vt 0.2500 0.8125
vt 0.3125 0.8125
vt 0.3125 1.0000
vt 0.2188 0.0000
vt 0.2188 0.0625
vt 0.5000 0.7812
vt 0.5000 0.8125
vt 0.0938 0.1250
vt 0.0938 0.0938
vt 0.3438 0.0938
vt 0.3438 0.1250
vt 0.2188 0.0938
vt 0.3438 0.0000
vt 0.3125 0.9688
vt 0.5625 0.9688
vt 0.5625 1.0000
vt 0.3125 0.9375
vt 0.5625 0.9375
vt 0.5625 0.7812
vt 0.5938 0.7812
vt 0.5938 1.0000
vt 0.5000 0.9375
vt 0.5000 0.7188
vt 0.5312 0.7188
vt 0.5312 0.9375
vt 0.5625 0.7188
vt 0.3125 0.9062
vt 0.5000 0.9062
vt 0.3125 0.8750
vt 0.5000 0.8750
vt 0.3125 0.8438
vt 0.5000 0.8438
vt 0.3438 0.7812
vt 0.3438 0.5938
vt 0.3750 0.5938
vt 0.3750 0.7812
vt 0.3125 0.5938
vt 0.1875 0.5312
vt 0.2188 0.5312
vt 0.2188 0.7188
vt 0.1875 0.5000
vt 0.3750 0.5000
vt 0.3750 0.5312
vt 0.2500 0.5312
vt 0.2500 0.7188
vt 0.2500 0.5938
vt 0.2500 0.5625
vt 0.4375 0.5625
vt 0.4375 0.5938
vt 0.4375 0.5312
vt 0.3750 0.7188
vt 0.3750 0.6875
vt 0.5625 0.6875
vt 0.3750 0.6562
vt 0.5625 0.6562
vt 0.3750 0.6250
vt 0.5625 0.6250
vt 0.5312 0.5938
vt 0.5312 0.6250
vt 0.6875 0.5938
vt 0.6875 0.6250
vt 0.5938 0.6250
vt 0.5938 0.8438
vt 0.6250 0.8438
vt 0.6250 1.0000
vt 0.3750 0.7500
vt 0.5000 0.7500
vt 0.5938 0.8125
vt 0.7188 0.8125
vt 0.7188 0.8438
vt 0.6250 0.9688
vt 0.7500 0.9688
vt 0.7500 1.0000
vt 0.6250 0.9375
vt 0.7500 0.9375
vt 0.6250 0.9062
vt 0.7500 0.9062
vt 0.6250 0.8750
vt 0.7188 0.8750
vt 0.7188 0.9062
vt 0.6875 0.7812
vt 0.6875 0.8125
vt 0.5938 0.7500
vt 0.6875 0.7500
vt 0.2500 0.6562
vt 0.2812 0.6562
vt 0.2812 0.7188
vt 0.3125 0.6562
vt 0.2500 0.6250
vt 0.2812 0.6250
vt 0.3125 0.6250
vt 0.2812 0.5938
vt 0.5938 0.7188
vt 0.6250 0.7188
vt 0.6250 0.7500
vt 0.5938 0.6875
vt 0.6250 0.6875
vt 0.5938 0.6562
vt 0.6250 0.6562
vt 0.6250 0.6250
vt 0.6562 0.7188
vt 0.6562 0.7500
vt 0.6562 0.6875
vt 0.6562 0.6562
vt 0.6562 0.6250
usemtl x
f 5/116/1 6/117/1 7/113/1 8/112/1
f 4/117/2 3/118/2 2/115/2 1/113/2
f 4/18/6 1/19/6 5/20/6 8/11/6
f 2/18/5 3/19/5 7/20/5 6/11/5
f 1/18/3 2/19/3 6/20/3 5/11/3
f 3/18/4 4/19/4 8/20/4 7/11/4
f 13/73/1 14/119/1 15/117/1 16/116/1
f 12/117/2 11/118/2 10/115/2 9/113/2
f 12/14/6 9/15/6 13/16/6 16/13/6
f 10/14/5 11/15/5 15/16/5 14/13/5
f 9/14/3 10/15/3 14/16/3 13/13/3
f 11/14/4 12/15/4 16/16/4 15/13/4
f 21/119/1 22/64/1 23/118/1 24/117/1
f 20/117/2 19/118/2 18/115/2 17/113/2
f 20/15/6 17/17/6 21/6/6 24/16/6
f 18/15/5 19/17/5 23/6/5 22/16/5
f 17/15/3 18/17/3 22/6/3 21/16/3
f 19/15/4 20/17/4 24/6/4 23/16/4
f 29/5/1 30/6/1 31/7/1 32/2/1
f 28/5/2 27/6/2 26/7/2 25/2/2
f 28/62/6 25/85/6 29/86/6 32/83/6
f 26/85/5 27/87/5 31/88/5 30/86/5
f 25/54/3 26/55/3 30/49/3 29/44/3
f 27/55/4 28/54/4 32/44/4 31/49/4
f 37/120/1 38/121/1 39/122/1 40/110/1
f 36/120/2 35/121/2 34/122/2 33/110/2
f 34/120/5 35/121/5 39/122/5 38/110/5
f 33/120/3 34/121/3 38/122/3 37/110/3
f 35/120/4 36/121/4 40/122/4 39/110/4
f 45/120/1 46/121/1 47/122/1 48/110/1
f 44/120/2 43/121/2 42/122/2 41/110/2
f 42/120/5 43/121/5 47/122/5 46/110/5
f 41/120/3 42/121/3 46/122/3 45/110/3
f 43/120/4 44/121/4 48/122/4 47/110/4
f 31/123/1 52/124/1 53/121/1 54/120/1
f 51/123/2 50/124/2 49/121/2 27/120/2
f 51/123/6 27/124/6 31/121/6 54/120/6
f 49/123/5 50/124/5 53/121/5 52/120/5
f 27/123/3 49/124/3 52/121/3 31/120/3
f 50/123/4 51/124/4 54/121/4 53/120/4
f 59/123/1 60/124/1 61/121/1 62/120/1
f 58/123/2 57/124/2 56/121/2 55/120/2
f 58/123/6 55/124/6 59/121/6 62/120/6
f 56/123/5 57/124/5 61/121/5 60/120/5
f 55/123/3 56/124/3 60/121/3 59/120/3
f 57/123/4 58/124/4 62/121/4 61/120/4
f 66/105/6 63/106/6 67/107/6 70/103/6
f 64/91/5 65/97/5 69/106/5 68/105/5
f 63/26/3 64/32/3 68/39/3 67/36/3
f 65/32/4 66/26/4 70/36/4 69/39/4
f 73/125/1 74/126/1 75/124/1 76/123/1
f 39/125/2 72/126/2 71/124/2 38/123/2
f 39/125/6 38/126/6 73/124/6 76/123/6
f 71/125/5 72/126/5 75/124/5 74/123/5
f 38/125/3 71/126/3 74/124/3 73/123/3
f 72/125/4 39/126/4 76/124/4 75/123/4
f 79/120/1 80/121/1 81/122/1 82/110/1
f 47/120/2 78/121/2 77/122/2 46/110/2
f 47/120/6 46/121/6 79/122/6 82/110/6
f 77/120/5 78/121/5 81/122/5 80/110/5
f 46/120/3 77/121/3 80/122/3 79/110/3
f 78/120/4 47/121/4 82/122/4 81/110/4
f 86/123/1 87/124/1 88/121/1 89/120/1
f 60/123/2 85/124/2 84/121/2 83/120/2
f 60/123/6 83/124/6 86/121/6 89/120/6
f 84/123/5 85/124/5 88/121/5 87/120/5
f 83/123/3 84/124/3 87/121/3 86/120/3
f 85/123/4 60/124/4 89/121/4 88/120/4
f 92/123/1 93/124/1 94/121/1 95/120/1
f 91/123/2 54/124/2 31/121/2 90/120/2
f 91/123/6 90/124/6 92/121/6 95/120/6
f 31/123/5 54/124/5 94/121/5 93/120/5
f 90/123/3 31/124/3 93/121/3 92/120/3
f 54/123/4 91/124/4 95/121/4 94/120/4
f 96/123/1 97/124/1 98/121/1 99/120/1
f 53/123/2 62/124/2 59/121/2 52/120/2
f 53/123/6 52/124/6 96/121/6 99/120/6
f 59/123/5 62/124/5 98/121/5 97/120/5
f 52/123/3 59/124/3 97/121/3 96/120/3
f 62/123/4 53/124/4 99/121/4 98/120/4
f 103/56/1 104/57/1 105/55/1 106/54/1
f 74/58/2 102/59/2 101/57/2 100/56/2
f 74/123/6 100/124/6 103/121/6 106/120/6
f 101/123/5 102/124/5 105/121/5 104/120/5
f 100/3/3 101/21/3 104/22/3 103/8/3
f 102/21/4 74/3/4 106/8/4 105/22/4
f 111/89/1 112/127/1 113/126/1 114/125/1
f 110/89/2 109/127/2 108/126/2 107/125/2
f 110/89/6 107/127/6 111/126/6 114/125/6
f 108/89/5 109/127/5 113/126/5 112/125/5
f 107/89/3 108/127/3 112/126/3 111/125/3
f 109/89/4 110/127/4 114/126/4 113/125/4
f 75/93/2 116/94/2 115/33/2 74/63/2
f 75/120/6 74/121/6 117/122/6 120/110/6
f 116/94/4 75/93/4 120/63/4 119/33/4
f 122/120/1 123/121/1 124/122/1 125/110/1
f 121/120/2 82/121/2 79/122/2 102/110/2
f 121/120/6 102/121/6 122/122/6 125/110/6
f 79/120/5 82/121/5 124/122/5 123/110/5
f 102/120/3 79/121/3 123/122/3 122/110/3
f 82/120/4 121/121/4 125/122/4 124/110/4
f 16/78/1 23/50/1 128/94/1 129/93/1
f 70/23/6 126/24/6 16/25/6 129/20/6
f 127/24/5 69/26/5 128/27/5 23/25/5
f 69/2/4 70/3/4 129/4/4 128/1/4
f 133/123/1 134/124/1 135/121/1 136/120/1
f 87/123/2 132/124/2 131/121/2 130/120/2
f 87/123/6 130/124/6 133/121/6 136/120/6
f 131/123/5 132/124/5 135/121/5 134/120/5
f 130/123/3 131/124/3 134/121/3 133/120/3
f 132/123/4 87/124/4 136/121/4 135/120/4
f 139/112/1 140/113/1 141/114/1 142/72/1
f 138/114/2 95/72/2 69/112/2 137/113/2
f 138/114/6 137/113/6 139/112/6 142/72/6
f 69/112/5 95/72/5 141/114/5 140/113/5
f 95/123/4 138/124/4 142/121/4 141/120/4
f 143/123/1 144/124/1 145/121/1 146/120/1
f 94/123/2 99/124/2 96/121/2 93/120/2
f 94/123/6 93/124/6 143/121/6 146/120/6
f 96/123/5 99/124/5 145/121/5 144/120/5
f 93/123/3 96/124/3 144/121/3 143/120/3
f 99/123/4 94/124/4 146/121/4 145/120/4
f 151/123/1 152/124/1 153/121/1 154/120/1
f 150/123/2 149/124/2 148/121/2 147/120/2
f 150/123/6 147/124/6 151/121/6 154/120/6
f 148/123/5 149/124/5 153/121/5 152/120/5
f 147/123/3 148/124/3 152/121/3 151/120/3
f 149/123/4 150/124/4 154/121/4 153/120/4
f 159/84/1 160/89/1 161/47/1 162/46/1
f 158/47/2 157/46/2 156/84/2 155/89/2
f 158/47/6 155/89/6 159/84/6 162/46/6
f 156/84/5 157/46/5 161/47/5 160/89/5
f 155/123/3 156/124/3 160/121/3 159/120/3
f 157/121/4 158/128/4 162/129/4 161/122/4
f 165/124/1 166/130/1 167/128/1 168/121/1
f 164/89/2 114/127/2 111/126/2 163/125/2
f 164/61/6 163/62/6 165/63/6 168/60/6
f 111/61/5 114/62/5 167/63/5 166/60/5
f 163/61/3 111/62/3 166/63/3 165/60/3
f 114/61/4 164/62/4 168/63/4 167/60/4
f 120/29/2 125/34/2 122/59/2 117/58/2
f 120/126/6 117/131/6 106/130/6 170/124/6
f 122/126/5 125/131/5 169/130/5 105/124/5
f 174/123/1 175/124/1 176/121/1 177/120/1
f 173/123/2 133/124/2 172/121/2 171/120/2
f 173/123/6 171/124/6 174/121/6 177/120/6
f 172/123/5 133/124/5 176/121/5 175/120/5
f 171/123/3 172/124/3 175/121/3 174/120/3
f 133/123/4 173/124/4 177/121/4 176/120/4
f 179/123/2 178/124/2 125/121/2 120/120/2
f 179/123/6 120/124/6 170/121/6 181/120/6
f 125/123/5 178/124/5 180/121/5 169/120/5
f 178/123/4 179/124/4 181/121/4 180/120/4
f 183/73/1 184/119/1 185/117/1 186/116/1
f 149/95/2 143/96/2 178/97/2 182/90/2
f 178/35/5 143/14/5 185/12/5 184/27/5
f 143/8/4 149/9/4 186/10/4 185/4/4
f 190/123/1 191/124/1 192/121/1 193/120/1
f 144/123/2 189/124/2 188/121/2 187/120/2
f 144/123/6 187/124/6 190/121/6 193/120/6
f 188/123/5 189/124/5 192/121/5 191/120/5
f 187/123/3 188/124/3 191/121/3 190/120/3
f 189/123/4 144/124/4 193/121/4 192/120/4
f 153/123/1 162/124/1 195/121/1 196/120/1
f 194/123/2 142/124/2 158/121/2 149/120/2
f 194/123/6 149/124/6 153/121/6 196/120/6
f 158/123/5 142/124/5 195/121/5 162/120/5
f 142/123/4 194/124/4 196/121/4 195/120/4
f 161/123/1 197/124/1 198/121/1 199/120/1
f 141/123/2 146/124/2 143/121/2 157/120/2
f 141/123/6 157/124/6 161/121/6 199/120/6
f 143/123/5 146/124/5 198/121/5 197/120/5
f 146/123/4 141/124/4 199/121/4 198/120/4
f 202/73/1 203/119/1 204/117/1 205/116/1
f 103/123/2 201/124/2 151/121/2 200/120/2
f 103/64/6 200/61/6 202/60/6 205/22/6
f 151/64/5 201/61/5 204/60/5 203/22/5
f 200/64/3 151/61/3 203/60/3 202/22/3
f 201/64/4 103/61/4 205/60/4 204/22/4
f 208/119/1 209/64/1 210/118/1 211/117/1
f 207/123/2 104/124/2 206/121/2 160/120/2
f 207/65/6 160/66/6 208/67/6 211/7/6
f 206/65/5 104/66/5 210/67/5 209/7/5
f 160/65/3 206/66/3 209/67/3 208/7/3
f 104/65/4 207/66/4 211/67/4 210/7/4
f 214/78/1 215/50/1 22/94/1 13/93/1
f 213/46/6 201/47/6 214/48/6 13/43/6
f 207/50/5 212/51/5 22/52/5 215/49/5
f 201/11/3 207/12/3 215/13/3 214/5/3
f 219/47/2 218/108/2 217/109/2 216/95/2
f 219/89/6 216/127/6 220/126/6 223/125/6
f 217/73/5 218/119/5 222/117/5 221/116/5
f 216/47/3 217/108/3 221/109/3 220/95/3
f 218/108/4 219/47/4 223/95/4 222/109/4
f 170/123/6 106/124/6 224/121/6 227/120/6
f 105/121/5 169/128/5 226/129/5 225/122/5
f 106/68/3 105/69/3 225/70/3 224/65/3
f 181/123/2 190/124/2 228/121/2 170/120/2
f 181/123/6 170/124/6 227/121/6 231/120/6
f 228/123/5 190/124/5 230/121/5 229/120/5
f 170/123/3 228/124/3 229/121/3 227/120/3
f 190/123/4 181/124/4 231/121/4 230/120/4
f 234/73/1 183/119/1 186/117/1 235/116/1
f 233/123/2 153/124/2 232/121/2 181/120/2
f 233/66/6 181/71/6 234/72/6 235/67/6
f 153/28/4 233/29/4 235/30/4 186/10/4
f 237/73/1 238/119/1 239/117/1 240/116/1
f 236/123/2 196/124/2 153/121/2 154/120/2
f 236/90/6 154/91/6 237/92/6 240/48/6
f 153/90/5 196/91/5 239/92/5 238/48/5
f 196/90/4 236/91/4 240/92/4 239/48/4
f 241/73/1 242/119/1 243/117/1 244/116/1
f 195/123/2 199/124/2 161/121/2 162/120/2
f 195/90/6 162/91/6 241/92/6 244/48/6
f 161/90/5 199/91/5 243/92/5 242/48/5
f 199/90/4 195/91/4 244/92/4 243/48/4
f 249/9/1 250/33/1 251/34/1 252/28/1
f 248/9/2 247/33/2 246/34/2 245/28/2
f 248/73/6 245/119/6 249/117/6 252/116/6
f 246/119/5 247/64/5 251/118/5 250/117/5
f 245/9/3 246/33/3 250/34/3 249/28/3
f 223/98/2 254/99/2 253/100/2 220/92/2
f 223/89/6 220/127/6 255/126/6 258/125/6
f 220/98/3 253/99/3 256/100/3 255/92/3
f 254/99/4 223/98/4 258/92/4 257/100/4
f 259/36/2 229/37/2 247/38/2 248/35/2
f 259/73/6 248/119/6 252/117/6 261/116/6
f 247/119/5 229/64/5 260/118/5 251/117/5
f 261/36/1 260/37/1 263/38/1 264/35/1
f 262/36/2 230/37/2 229/38/2 259/35/2
f 262/73/6 259/119/6 261/117/6 264/116/6
f 229/119/5 230/64/5 263/118/5 260/117/5
f 230/37/4 262/36/4 264/35/4 263/38/4
f 269/73/1 270/119/1 271/117/1 272/116/1
f 268/73/2 267/119/2 266/117/2 265/116/2
f 268/73/6 265/119/6 269/117/6 272/116/6
f 266/73/5 267/119/5 271/117/5 270/116/5
f 267/73/4 268/119/4 272/117/4 271/116/4
f 277/73/1 278/119/1 279/117/1 280/116/1
f 276/73/2 275/119/2 274/117/2 273/116/2
f 276/73/6 273/119/6 277/117/6 280/116/6
f 274/73/5 275/119/5 279/117/5 278/116/5
f 275/73/4 276/119/4 280/117/4 279/116/4
f 284/73/1 285/119/1 286/117/1 287/116/1
f 249/73/2 283/119/2 282/117/2 281/116/2
f 249/73/6 281/119/6 284/117/6 287/116/6
f 281/73/3 282/119/3 285/117/3 284/116/3
f 283/73/4 249/119/4 287/117/4 286/116/4
f 291/51/2 290/53/2 289/45/2 288/52/2
f 291/51/6 288/52/6 292/45/6 295/53/6
f 289/45/5 290/53/5 294/51/5 293/52/5
f 288/123/3 289/124/3 293/121/3 292/120/3
f 290/73/4 291/119/4 295/117/4 294/116/4
f 299/119/1 300/64/1 301/118/1 302/117/1
f 298/119/2 250/64/2 297/118/2 296/117/2
f 297/119/5 250/64/5 301/118/5 300/117/5
f 296/119/3 297/64/3 300/118/3 299/117/3
f 250/119/4 298/64/4 302/118/4 301/117/4
f 304/127/6 283/132/6 305/131/6 308/126/6
f 298/127/5 303/132/5 307/131/5 306/126/5
f 283/74/3 298/75/3 306/76/3 305/73/3
f 309/101/1 310/102/1 311/99/1 312/98/1
f 258/124/6 255/130/6 309/128/6 312/121/6
f 255/101/3 256/102/3 310/99/3 309/98/3
f 257/102/4 258/101/4 312/98/4 311/99/4
f 313/36/1 314/37/1 315/38/1 316/35/1
f 261/73/6 252/119/6 313/117/6 316/116/6
f 251/119/5 260/64/5 315/118/5 314/117/5
f 252/36/3 251/37/3 314/38/3 313/35/3
f 260/37/4 261/36/4 316/35/4 315/38/4
f 320/123/6 317/124/6 321/121/6 324/120/6
f 318/123/5 319/124/5 323/121/5 322/120/5
f 326/36/2 325/37/2 263/38/2 264/35/2
f 326/73/6 264/119/6 327/117/6 330/116/6
f 263/119/5 325/64/5 329/118/5 328/117/5
f 264/36/3 263/37/3 328/38/3 327/35/3
f 325/37/4 326/36/4 330/35/4 329/38/4
f 334/71/2 333/77/2 332/75/2 331/74/2
f 334/73/6 331/119/6 335/117/6 338/116/6
f 332/73/5 333/119/5 337/117/5 336/116/5
f 333/71/4 334/77/4 338/75/4 337/74/4
f 342/73/1 277/119/1 280/117/1 343/116/1
f 290/73/2 341/119/2 340/117/2 339/116/2
f 341/73/4 290/119/4 343/117/4 280/116/4
f 348/79/1 349/80/1 299/53/1 285/78/1
f 347/81/2 346/82/2 345/80/2 344/79/2
f 347/89/6 344/127/6 348/126/6 285/125/6
f 345/113/5 346/115/5 299/21/5 349/114/5
f 344/19/3 345/31/3 349/32/3 348/23/3
f 203/119/1 208/64/1 211/118/1 204/117/1
f 353/103/2 352/104/2 351/102/2 350/101/2
f 350/31/3 351/40/3 208/37/3 203/39/3
f 356/36/1 357/37/1 358/38/1 359/35/1
f 313/36/2 314/37/2 355/38/2 354/35/2
f 313/73/6 354/119/6 356/117/6 359/116/6
f 355/119/5 314/64/5 358/118/5 357/117/5
f 314/37/4 313/36/4 359/35/4 358/38/4
f 362/110/1 363/111/1 364/108/1 365/47/1
f 312/124/6 309/130/6 362/128/6 365/121/6
f 360/89/5 361/127/5 364/126/5 363/125/5
f 309/110/3 360/111/3 363/108/3 362/47/3
f 361/111/4 312/110/4 365/47/4 364/108/4
f 321/119/6 308/64/6 366/118/6 369/117/6
f 307/119/5 322/64/5 368/118/5 367/117/5
f 370/36/1 371/37/1 372/38/1 373/35/1
f 327/36/2 328/37/2 315/38/2 316/35/2
f 327/73/6 316/119/6 370/117/6 373/116/6
f 315/119/5 328/64/5 372/118/5 371/117/5
f 316/36/3 315/37/3 371/38/3 370/35/3
f 330/73/6 327/119/6 373/117/6 375/116/6
f 328/119/5 329/64/5 374/118/5 372/117/5
f 329/37/4 330/36/4 375/35/4 374/38/4
f 338/73/6 335/119/6 376/117/6 379/116/6
f 336/73/5 337/119/5 378/117/5 377/116/5
f 337/83/4 338/84/4 379/82/4 378/81/4
f 270/73/1 342/119/1 343/117/1 271/116/1
f 294/73/4 295/119/4 271/117/4 343/116/4
f 366/119/6 382/64/6 286/118/6 385/117/6
f 383/119/5 367/64/5 384/118/5 302/117/5
f 370/36/2 371/37/2 358/38/2 359/35/2
f 370/73/6 359/119/6 386/117/6 389/116/6
f 358/119/5 371/64/5 388/118/5 387/117/5
f 359/36/3 358/37/3 387/38/3 386/35/3
f 371/37/4 370/36/4 389/35/4 388/38/4
f 391/73/6 369/119/6 392/117/6 395/116/6
f 368/119/5 390/64/5 394/118/5 393/117/5
f 396/36/1 397/37/1 398/38/1 399/35/1
f 375/73/6 373/119/6 396/117/6 399/116/6
f 372/119/5 374/64/5 398/118/5 397/117/5
f 373/36/3 372/37/3 397/38/3 396/35/3
f 374/37/4 375/36/4 399/35/4 398/38/4
f 400/73/1 401/119/1 402/117/1 403/116/1
f 379/73/6 376/119/6 400/117/6 403/116/6
f 377/73/5 378/119/5 402/117/5 401/116/5
f 378/73/4 379/119/4 403/117/4 402/116/4
f 404/41/1 405/42/1 406/43/1 407/30/1
f 386/41/2 387/42/2 301/43/2 287/30/2
f 386/73/6 287/119/6 404/117/6 407/116/6
f 301/119/5 387/64/5 406/118/5 405/117/5
f 287/41/3 301/42/3 405/43/3 404/30/3
f 410/124/1 411/130/1 412/128/1 413/121/1
f 167/124/2 409/130/2 408/128/2 166/121/2
f 167/124/6 166/130/6 410/128/6 413/121/6
f 408/124/5 409/130/5 412/128/5 411/121/5
f 166/124/3 408/130/3 411/128/3 410/121/3
f 409/124/4 167/130/4 413/128/4 412/121/4
f 407/41/1 406/42/1 414/43/1 415/30/1
f 389/73/6 386/119/6 407/117/6 415/116/6
f 387/119/5 388/64/5 414/118/5 406/117/5
f 415/44/1 414/45/1 416/42/1 417/41/1
f 396/44/2 397/45/2 388/42/2 389/41/2
f 396/73/6 389/119/6 415/117/6 417/116/6
f 388/119/5 397/64/5 416/118/5 414/117/5
f 397/45/4 396/44/4 417/41/4 416/42/4
f 422/73/1 423/119/1 424/117/1 425/116/1
f 421/73/2 420/119/2 419/117/2 418/116/2
f 421/73/6 418/119/6 422/117/6 425/116/6
f 419/73/5 420/119/5 424/117/5 423/116/5
f 418/73/3 419/119/3 423/117/3 422/116/3
f 420/73/4 421/119/4 425/117/4 424/116/4
f 14/119/1 21/64/1 24/118/1 15/117/1
f 434/119/1 435/64/1 436/118/1 437/117/1
f 433/119/2 432/64/2 431/118/2 430/117/2
f 433/119/6 430/64/6 434/118/6 437/117/6
f 431/119/5 432/64/5 436/118/5 435/117/5
f 430/119/3 431/64/3 435/118/3 434/117/3
f 432/119/4 433/64/4 437/118/4 436/117/4
f 440/119/1 441/64/1 442/118/1 443/117/1
f 425/119/6 422/64/6 440/118/6 443/117/6
f 438/119/5 439/64/5 442/118/5 441/117/5
f 422/119/3 438/64/3 441/118/3 440/117/3
f 439/119/4 425/64/4 443/118/4 442/117/4
f 446/89/1 447/127/1 448/126/1 449/125/1
f 445/89/6 444/127/6 446/126/6 449/125/6
f 435/89/5 436/127/5 448/126/5 447/125/5
f 444/89/3 435/127/3 447/126/3 446/125/3
f 436/89/4 445/127/4 449/126/4 448/125/4
