#created with MagicaVoxel and VoxelOptimizer  - v:176 - f:140
o Lightsabers
mtllib Lightsabers.mtl
vn 0 1 0
vn 0 -1 0
vn -1 0 0
vn 1 0 0
vn 0 0 1
vn 0 0 -1
v -5 -6 -7.5
v -5 -6 -5.5
v -3 -6 -5.5
v -3 -6 -7.5
v -5 -4 -7.5
v -5 -4 -5.5
v -3 -4 -5.5
v -3 -4 -7.5
v 1 -6 5.5
v 1 -6 7.5
v 3 -6 7.5
v 3 -6 5.5
v 1 -4 5.5
v 1 -4 7.5
v 3 -4 7.5
v 3 -4 5.5
v -5 -5 -5.5
v -5 -5 -4.5
v -3 -5 -4.5
v -3 -5 -5.5
v -5 -2 -5.5
v -5 -2 -4.5
v -3 -2 -4.5
v -3 -2 -5.5
v 1 -5 4.5
v 1 -5 5.5
v 3 -5 5.5
v 3 -5 4.5
v 1 -2 4.5
v 1 -2 5.5
v 3 -2 5.5
v 3 -2 4.5
v -5 -4 -6.5
v -5 -4 -3.5
v -4 -4 -3.5
v -4 -4 -6.5
v -5 -3 -6.5
v -5 -3 -3.5
v -4 -3 -3.5
v -4 -3 -6.5
v -3 -4 -3.5
v -3 -4 -6.5
v -3 -3 -3.5
v -3 -3 -6.5
v 1 -4 3.5
v 1 -4 6.5
v 2 -4 6.5
v 2 -4 3.5
v 1 -3 3.5
v 1 -3 6.5
v 2 -3 6.5
v 2 -3 3.5
v 3 -4 6.5
v 3 -4 3.5
v 3 -3 6.5
v 3 -3 3.5
v -5 -3 -4.5
v -5 -3 -2.5
v -3 -3 -2.5
v -3 -3 -4.5
v -5 -1 -4.5
v -5 -1 -2.5
v -3 -1 -2.5
v -3 -1 -4.5
v 1 -3 2.5
v 1 -3 4.5
v 3 -3 4.5
v 3 -3 2.5
v 1 -1 2.5
v 1 -1 4.5
v 3 -1 4.5
v 3 -1 2.5
v -5 -2 -2.5
v -5 -2 -1.5
v -3 -2 -1.5
v -3 -2 -2.5
v -5 1 -2.5
v -5 1 -1.5
v -3 1 -1.5
v -3 1 -2.5
v 1 -2 1.5
v 1 -2 2.5
v 3 -2 2.5
v 3 -2 1.5
v 1 1 1.5
v 1 1 2.5
v 3 1 2.5
v 3 1 1.5
v -5 -1 -3.5
v -5 -1 -0.5
v -4 -1 -0.5
v -4 -1 -3.5
v -5 0 -3.5
v -5 0 -0.5
v -4 0 -0.5
v -4 0 -3.5
v -3 -1 -0.5
v -3 -1 -3.5
v -3 0 -0.5
v -3 0 -3.5
v 1 -1 0.5
v 1 -1 3.5
v 2 -1 3.5
v 2 -1 0.5
v 1 0 0.5
v 1 0 3.5
v 2 0 3.5
v 2 0 0.5
v 3 -1 3.5
v 3 -1 0.5
v 3 0 3.5
v 3 0 0.5
v -5 0 -1.5
v -5 0 0.5
v -3 0 0.5
v -3 0 -1.5
v -5 2 -1.5
v -5 2 0.5
v -3 2 0.5
v -3 2 -1.5
v 1 0 -0.5
v 1 0 1.5
v 3 0 1.5
v 3 0 -0.5
v 1 2 -0.5
v 1 2 1.5
v 3 2 1.5
v 3 2 -0.5
v -5 1 0.5
v -5 1 1.5
v -3 1 1.5
v -3 1 0.5
v -5 4 0.5
v -5 4 1.5
v -3 4 1.5
v -3 4 0.5
v 1 1 -1.5
v 1 1 -0.5
v 3 1 -0.5
v 3 1 -1.5
v 1 4 -1.5
v 1 4 -0.5
v 3 4 -0.5
v 3 4 -1.5
v -5 2 -0.5
v -5 2 2.5
v -4 2 2.5
v -4 2 -0.5
v -5 3 -0.5
v -5 3 2.5
v -4 3 2.5
v -4 3 -0.5
v -3 2 2.5
v -3 2 -0.5
v -3 3 2.5
v -3 3 -0.5
v 1 2 -2.5
v 1 2 0.5
v 2 2 0.5
v 2 2 -2.5
v 1 3 -2.5
v 1 3 0.5
v 2 3 0.5
v 2 3 -2.5
v 3 2 0.5
v 3 2 -2.5
v 3 3 0.5
v 3 3 -2.5
v -5 3 1.5
v -3 3 1.5
v -5 4 2.5
v -3 4 2.5
v 1 3 -1.5
v 3 3 -1.5
v 1 4 -2.5
v 3 4 -2.5
vt 0.000 1.000
vt 0.000 0.625
vt 0.250 0.625
vt 0.250 1.000
vt 0.000 0.250
vt 0.250 0.250
vt 0.375 0.625
vt 0.375 1.000
vt 0.375 0.250
vt 0.000 0.125
vt 0.125 0.125
vt 0.125 0.250
vt 0.000 0.000
vt 0.125 0.000
vt 0.250 0.125
usemtl x
f 5/10/1 6/11/1 7/12/1 8/5/1
f 4/10/2 3/11/2 2/12/2 1/5/2
f 4/10/6 1/11/6 5/12/6 8/5/6
f 2/10/5 3/11/5 7/12/5 6/5/5
f 1/10/3 2/11/3 6/12/3 5/5/3
f 3/10/4 4/11/4 8/12/4 7/5/4
f 13/10/1 14/11/1 15/12/1 16/5/1
f 12/10/2 11/11/2 10/12/2 9/5/2
f 12/10/6 9/11/6 13/12/6 16/5/6
f 10/10/5 11/11/5 15/12/5 14/5/5
f 9/10/3 10/11/3 14/12/3 13/5/3
f 11/10/4 12/11/4 16/12/4 15/5/4
f 21/13/1 22/14/1 23/11/1 24/10/1
f 20/10/2 19/11/2 18/12/2 17/5/2
f 20/2/6 17/3/6 21/4/6 24/1/6
f 18/2/5 19/3/5 23/4/5 22/1/5
f 17/3/3 18/7/3 22/8/3 21/4/3
f 19/3/4 20/7/4 24/8/4 23/4/4
f 29/11/1 30/15/1 31/6/1 32/12/1
f 28/10/2 27/11/2 26/12/2 25/5/2
f 28/5/6 25/6/6 29/3/6 32/2/6
f 26/5/5 27/6/5 31/3/5 30/2/5
f 25/6/3 26/9/3 30/7/3 29/3/3
f 27/6/4 28/9/4 32/7/4 31/3/4
f 37/3/1 38/4/1 39/8/1 40/7/1
f 36/3/2 35/4/2 34/8/2 33/7/2
f 36/10/6 33/11/6 37/12/6 40/5/6
f 34/13/5 35/14/5 39/11/5 38/10/5
f 33/3/3 34/4/3 38/8/3 37/7/3
f 40/3/1 39/4/1 43/8/1 44/7/1
f 42/3/2 41/4/2 35/8/2 36/7/2
f 42/10/6 36/11/6 40/12/6 44/5/6
f 35/13/5 41/14/5 43/11/5 39/10/5
f 41/8/4 42/7/4 44/3/4 43/4/4
f 49/7/1 50/9/1 51/6/1 52/3/1
f 48/7/2 47/9/2 46/6/2 45/3/2
f 48/11/6 45/15/6 49/6/6 52/12/6
f 46/10/5 47/11/5 51/12/5 50/5/5
f 45/7/3 46/9/3 50/6/3 49/3/3
f 52/7/1 51/9/1 55/6/1 56/3/1
f 54/7/2 53/9/2 47/6/2 48/3/2
f 54/11/6 48/15/6 52/6/6 56/12/6
f 47/10/5 53/11/5 55/12/5 51/5/5
f 53/6/4 54/3/4 56/7/4 55/9/4
f 61/13/1 62/14/1 63/11/1 64/10/1
f 60/13/2 59/14/2 58/11/2 57/10/2
f 60/13/6 57/14/6 61/11/6 64/10/6
f 58/13/5 59/14/5 63/11/5 62/10/5
f 57/13/3 58/14/3 62/11/3 61/10/3
f 59/13/4 60/14/4 64/11/4 63/10/4
f 69/11/1 70/15/1 71/6/1 72/12/1
f 68/11/2 67/15/2 66/6/2 65/12/2
f 68/11/6 65/15/6 69/6/6 72/12/6
f 66/11/5 67/15/5 71/6/5 70/12/5
f 65/11/3 66/15/3 70/6/3 69/12/3
f 67/11/4 68/15/4 72/6/4 71/12/4
f 77/13/1 78/14/1 79/11/1 80/10/1
f 76/13/2 75/14/2 74/11/2 73/10/2
f 76/13/6 73/14/6 77/11/6 80/10/6
f 74/13/5 75/14/5 79/11/5 78/10/5
f 73/13/3 74/14/3 78/11/3 77/10/3
f 75/13/4 76/14/4 80/11/4 79/10/4
f 85/11/1 86/15/1 87/6/1 88/12/1
f 84/11/2 83/15/2 82/6/2 81/12/2
f 84/11/6 81/15/6 85/6/6 88/12/6
f 82/11/5 83/15/5 87/6/5 86/12/5
f 81/11/3 82/15/3 86/6/3 85/12/3
f 83/11/4 84/15/4 88/6/4 87/12/4
f 93/13/1 94/14/1 95/11/1 96/10/1
f 92/13/2 91/14/2 90/11/2 89/10/2
f 92/13/6 89/14/6 93/11/6 96/10/6
f 90/13/5 91/14/5 95/11/5 94/10/5
f 89/13/3 90/14/3 94/11/3 93/10/3
f 96/13/1 95/14/1 99/11/1 100/10/1
f 98/13/2 97/14/2 91/11/2 92/10/2
f 98/13/6 92/14/6 96/11/6 100/10/6
f 91/13/5 97/14/5 99/11/5 95/10/5
f 97/13/4 98/14/4 100/11/4 99/10/4
f 105/11/1 106/15/1 107/6/1 108/12/1
f 104/11/2 103/15/2 102/6/2 101/12/2
f 104/11/6 101/15/6 105/6/6 108/12/6
f 102/11/5 103/15/5 107/6/5 106/12/5
f 101/11/3 102/15/3 106/6/3 105/12/3
f 108/11/1 107/15/1 111/6/1 112/12/1
f 110/11/2 109/15/2 103/6/2 104/12/2
f 110/11/6 104/15/6 108/6/6 112/12/6
f 103/11/5 109/15/5 111/6/5 107/12/5
f 109/11/4 110/15/4 112/6/4 111/12/4
f 117/13/1 118/14/1 119/11/1 120/10/1
f 116/13/2 115/14/2 114/11/2 113/10/2
f 116/13/6 113/14/6 117/11/6 120/10/6
f 114/13/5 115/14/5 119/11/5 118/10/5
f 113/13/3 114/14/3 118/11/3 117/10/3
f 115/13/4 116/14/4 120/11/4 119/10/4
f 125/11/1 126/15/1 127/6/1 128/12/1
f 124/11/2 123/15/2 122/6/2 121/12/2
f 124/11/6 121/15/6 125/6/6 128/12/6
f 122/11/5 123/15/5 127/6/5 126/12/5
f 121/11/3 122/15/3 126/6/3 125/12/3
f 123/11/4 124/15/4 128/6/4 127/12/4
f 133/13/1 134/14/1 135/11/1 136/10/1
f 132/13/2 131/14/2 130/11/2 129/10/2
f 132/13/6 129/14/6 133/11/6 136/10/6
f 130/13/5 131/14/5 135/11/5 134/10/5
f 129/13/3 130/14/3 134/11/3 133/10/3
f 131/13/4 132/14/4 136/11/4 135/10/4
f 141/11/1 142/15/1 143/6/1 144/12/1
f 140/11/2 139/15/2 138/6/2 137/12/2
f 140/11/6 137/15/6 141/6/6 144/12/6
f 138/11/5 139/15/5 143/6/5 142/12/5
f 137/11/3 138/15/3 142/6/3 141/12/3
f 139/11/4 140/15/4 144/6/4 143/12/4
f 149/13/1 150/14/1 151/11/1 152/10/1
f 148/13/2 147/14/2 146/11/2 145/10/2
f 148/13/6 145/14/6 149/11/6 152/10/6
f 146/13/5 147/14/5 151/11/5 150/10/5
f 145/13/3 146/14/3 150/11/3 149/10/3
f 152/13/1 151/14/1 155/11/1 156/10/1
f 154/13/2 153/14/2 147/11/2 148/10/2
f 154/13/6 148/14/6 152/11/6 156/10/6
f 147/13/5 153/14/5 155/11/5 151/10/5
f 153/13/4 154/14/4 156/11/4 155/10/4
f 161/11/1 162/15/1 163/6/1 164/12/1
f 160/11/2 159/15/2 158/6/2 157/12/2
f 160/11/6 157/15/6 161/6/6 164/12/6
f 158/11/5 159/15/5 163/6/5 162/12/5
f 157/11/3 158/15/3 162/6/3 161/12/3
f 164/11/1 163/15/1 167/6/1 168/12/1
f 166/11/2 165/15/2 159/6/2 160/12/2
f 166/11/6 160/15/6 164/6/6 168/12/6
f 159/11/5 165/15/5 167/6/5 163/12/5
f 165/11/4 166/15/4 168/6/4 167/12/4
f 134/13/1 171/14/1 172/11/1 135/10/1
f 150/13/5 155/14/5 172/11/5 171/10/5
f 169/13/3 150/14/3 171/11/3 134/10/3
f 155/13/4 170/14/4 135/11/4 172/10/4
f 175/11/1 141/15/1 144/6/1 176/12/1
f 168/11/6 161/15/6 175/6/6 176/12/6
f 161/11/3 173/15/3 141/6/3 175/12/3
f 174/11/4 168/15/4 176/6/4 144/12/4
